<?xml version="1.0" encoding="UTF-8" standalone="no"?><!DOCTYPE svg PUBLIC "-//W3C//DTD SVG 1.1//EN" "http://www.w3.org/Graphics/SVG/1.1/DTD/svg11.dtd"><svg width="1024px" height="1024px" version="1.1" xmlns="http://www.w3.org/2000/svg" xmlns:xlink="http://www.w3.org/1999/xlink" xml:space="preserve" xmlns:serif="http://www.serif.com/" style="fill-rule:evenodd;clip-rule:evenodd;stroke-linecap:round;stroke-linejoin:round;stroke-miterlimit:1.5;"><g id="sweeppress-color"><rect x="0" y="0" width="1024" height="1024" style="fill:rgb(35,177,0);stroke:rgb(35,177,0);stroke-width:1px;"/><path d="M172.024,960C166.349,960 161.272,958.992 156.792,956.976C152.312,954.96 148.784,951.917 146.208,947.848C143.632,943.779 142.344,938.683 142.344,932.56L142.344,930.208L151.64,930.208L151.64,932.56C151.64,939.056 153.544,943.891 157.352,947.064C161.16,950.237 166.051,951.824 172.024,951.824C178.147,951.824 182.813,950.443 186.024,947.68C189.235,944.917 190.84,941.445 190.84,937.264C190.84,934.352 190.112,932.037 188.656,930.32C187.2,928.603 185.165,927.203 182.552,926.12C179.939,925.037 176.877,924.085 173.368,923.264L167.544,921.808C162.989,920.613 158.957,919.157 155.448,917.44C151.939,915.723 149.195,913.464 147.216,910.664C145.237,907.864 144.248,904.261 144.248,899.856C144.248,895.451 145.349,891.643 147.552,888.432C149.755,885.221 152.853,882.757 156.848,881.04C160.843,879.323 165.453,878.464 170.68,878.464C175.981,878.464 180.741,879.379 184.96,881.208C189.179,883.037 192.501,885.725 194.928,889.272C197.355,892.819 198.568,897.28 198.568,902.656L198.568,907.36L189.272,907.36L189.272,902.656C189.272,898.848 188.469,895.787 186.864,893.472C185.259,891.157 183.056,889.44 180.256,888.32C177.456,887.2 174.264,886.64 170.68,886.64C165.528,886.64 161.384,887.779 158.248,890.056C155.112,892.333 153.544,895.563 153.544,899.744C153.544,902.507 154.216,904.747 155.56,906.464C156.904,908.181 158.808,909.581 161.272,910.664C163.736,911.747 166.685,912.699 170.12,913.52L175.944,914.976C180.499,915.947 184.587,917.272 188.208,918.952C191.829,920.632 194.723,922.909 196.888,925.784C199.053,928.659 200.136,932.411 200.136,937.04C200.136,941.669 198.979,945.701 196.664,949.136C194.349,952.571 191.083,955.24 186.864,957.144C182.645,959.048 177.699,960 172.024,960Z" style="fill:white;fill-rule:nonzero;"/><path d="M228.136,958.432L215.368,880.032L224.776,880.032L235.864,952.384L237.432,952.384L251.88,880.032L268.68,880.032L283.016,952.384L284.584,952.384L295.672,880.032L305.08,880.032L292.312,958.432L275.512,958.432L261.064,885.632L259.496,885.632L245.048,958.432L228.136,958.432Z" style="fill:white;fill-rule:nonzero;"/><path d="M323.784,958.432L323.784,880.032L372.056,880.032L372.056,888.544L333.192,888.544L333.192,914.752L368.92,914.752L368.92,923.264L333.192,923.264L333.192,949.92L372.616,949.92L372.616,958.432L323.784,958.432Z" style="fill:white;fill-rule:nonzero;"/><path d="M392.44,958.432L392.44,880.032L440.712,880.032L440.712,888.544L401.848,888.544L401.848,914.752L437.576,914.752L437.576,923.264L401.848,923.264L401.848,949.92L441.272,949.92L441.272,958.432L392.44,958.432Z" style="fill:white;fill-rule:nonzero;"/><path d="M461.096,958.432L461.096,880.032L491.112,880.032C495.816,880.032 500.016,880.947 503.712,882.776C507.408,884.605 510.339,887.2 512.504,890.56C514.669,893.92 515.752,897.989 515.752,902.768L515.752,904.224C515.752,908.928 514.651,912.979 512.448,916.376C510.245,919.773 507.277,922.368 503.544,924.16C499.811,925.952 495.667,926.848 491.112,926.848L470.504,926.848L470.504,958.432L461.096,958.432ZM470.504,918.336L490.104,918.336C495.107,918.336 499.064,917.085 501.976,914.584C504.888,912.083 506.344,908.555 506.344,904L506.344,902.88C506.344,898.325 504.907,894.797 502.032,892.296C499.157,889.795 495.181,888.544 490.104,888.544L470.504,888.544L470.504,918.336Z" style="fill:white;fill-rule:nonzero;"/><path d="M534.008,958.432L534.008,880.032L564.024,880.032C568.728,880.032 572.928,880.947 576.624,882.776C580.32,884.605 583.251,887.2 585.416,890.56C587.581,893.92 588.664,897.989 588.664,902.768L588.664,904.224C588.664,908.928 587.563,912.979 585.36,916.376C583.157,919.773 580.189,922.368 576.456,924.16C572.723,925.952 568.579,926.848 564.024,926.848L543.416,926.848L543.416,958.432L534.008,958.432ZM543.416,918.336L563.016,918.336C568.019,918.336 571.976,917.085 574.888,914.584C577.8,912.083 579.256,908.555 579.256,904L579.256,902.88C579.256,898.325 577.819,894.797 574.944,892.296C572.069,889.795 568.093,888.544 563.016,888.544L543.416,888.544L543.416,918.336Z" style="fill:white;fill-rule:nonzero;"/><path d="M606.92,958.432L606.92,880.032L638.616,880.032C643.469,880.032 647.744,880.872 651.44,882.552C655.136,884.232 658.029,886.621 660.12,889.72C662.211,892.819 663.256,896.533 663.256,900.864L663.256,902.096C663.256,907.248 662.024,911.317 659.56,914.304C657.096,917.291 654.184,919.307 650.824,920.352L650.824,921.92C653.512,921.995 655.733,922.872 657.488,924.552C659.243,926.232 660.12,928.752 660.12,932.112L660.12,958.432L650.824,958.432L650.824,933.232C650.824,930.992 650.208,929.275 648.976,928.08C647.744,926.885 645.896,926.288 643.432,926.288L616.328,926.288L616.328,958.432L606.92,958.432ZM616.328,917.776L637.72,917.776C642.872,917.776 646.848,916.525 649.648,914.024C652.448,911.523 653.848,908.032 653.848,903.552L653.848,902.768C653.848,898.288 652.467,894.797 649.704,892.296C646.941,889.795 642.947,888.544 637.72,888.544L616.328,888.544L616.328,917.776Z" style="fill:white;fill-rule:nonzero;"/><path d="M683.192,958.432L683.192,880.032L731.464,880.032L731.464,888.544L692.6,888.544L692.6,914.752L728.328,914.752L728.328,923.264L692.6,923.264L692.6,949.92L732.024,949.92L732.024,958.432L683.192,958.432Z" style="fill:white;fill-rule:nonzero;"/><path d="M777.944,960C772.269,960 767.192,958.992 762.712,956.976C758.232,954.96 754.704,951.917 752.128,947.848C749.552,943.779 748.264,938.683 748.264,932.56L748.264,930.208L757.56,930.208L757.56,932.56C757.56,939.056 759.464,943.891 763.272,947.064C767.08,950.237 771.971,951.824 777.944,951.824C784.067,951.824 788.733,950.443 791.944,947.68C795.155,944.917 796.76,941.445 796.76,937.264C796.76,934.352 796.032,932.037 794.576,930.32C793.12,928.603 791.085,927.203 788.472,926.12C785.859,925.037 782.797,924.085 779.288,923.264L773.464,921.808C768.909,920.613 764.877,919.157 761.368,917.44C757.859,915.723 755.115,913.464 753.136,910.664C751.157,907.864 750.168,904.261 750.168,899.856C750.168,895.451 751.269,891.643 753.472,888.432C755.675,885.221 758.773,882.757 762.768,881.04C766.763,879.323 771.373,878.464 776.6,878.464C781.901,878.464 786.661,879.379 790.88,881.208C795.099,883.037 798.421,885.725 800.848,889.272C803.275,892.819 804.488,897.28 804.488,902.656L804.488,907.36L795.192,907.36L795.192,902.656C795.192,898.848 794.389,895.787 792.784,893.472C791.179,891.157 788.976,889.44 786.176,888.32C783.376,887.2 780.184,886.64 776.6,886.64C771.448,886.64 767.304,887.779 764.168,890.056C761.032,892.333 759.464,895.563 759.464,899.744C759.464,902.507 760.136,904.747 761.48,906.464C762.824,908.181 764.728,909.581 767.192,910.664C769.656,911.747 772.605,912.699 776.04,913.52L781.864,914.976C786.419,915.947 790.507,917.272 794.128,918.952C797.749,920.632 800.643,922.909 802.808,925.784C804.973,928.659 806.056,932.411 806.056,937.04C806.056,941.669 804.899,945.701 802.584,949.136C800.269,952.571 797.003,955.24 792.784,957.144C788.565,959.048 783.619,960 777.944,960Z" style="fill:white;fill-rule:nonzero;"/><path d="M852.2,960C846.525,960 841.448,958.992 836.968,956.976C832.488,954.96 828.96,951.917 826.384,947.848C823.808,943.779 822.52,938.683 822.52,932.56L822.52,930.208L831.816,930.208L831.816,932.56C831.816,939.056 833.72,943.891 837.528,947.064C841.336,950.237 846.227,951.824 852.2,951.824C858.323,951.824 862.989,950.443 866.2,947.68C869.411,944.917 871.016,941.445 871.016,937.264C871.016,934.352 870.288,932.037 868.832,930.32C867.376,928.603 865.341,927.203 862.728,926.12C860.115,925.037 857.053,924.085 853.544,923.264L847.72,921.808C843.165,920.613 839.133,919.157 835.624,917.44C832.115,915.723 829.371,913.464 827.392,910.664C825.413,907.864 824.424,904.261 824.424,899.856C824.424,895.451 825.525,891.643 827.728,888.432C829.931,885.221 833.029,882.757 837.024,881.04C841.019,879.323 845.629,878.464 850.856,878.464C856.157,878.464 860.917,879.379 865.136,881.208C869.355,883.037 872.677,885.725 875.104,889.272C877.531,892.819 878.744,897.28 878.744,902.656L878.744,907.36L869.448,907.36L869.448,902.656C869.448,898.848 868.645,895.787 867.04,893.472C865.435,891.157 863.232,889.44 860.432,888.32C857.632,887.2 854.44,886.64 850.856,886.64C845.704,886.64 841.56,887.779 838.424,890.056C835.288,892.333 833.72,895.563 833.72,899.744C833.72,902.507 834.392,904.747 835.736,906.464C837.08,908.181 838.984,909.581 841.448,910.664C843.912,911.747 846.861,912.699 850.296,913.52L856.12,914.976C860.675,915.947 864.763,917.272 868.384,918.952C872.005,920.632 874.899,922.909 877.064,925.784C879.229,928.659 880.312,932.411 880.312,937.04C880.312,941.669 879.155,945.701 876.84,949.136C874.525,952.571 871.259,955.24 867.04,957.144C862.821,959.048 857.875,960 852.2,960Z" style="fill:white;fill-rule:nonzero;"/><g><g id="Dust"><path d="M454.174,534.653C454.174,534.653 432.155,509.323 403.301,510.198C381.526,510.859 361.455,516.895 347.178,530.699C337.93,525.711 327.425,522.59 316.178,521.902C289.641,520.277 265.55,532.593 251.5,552.343C230.242,560.76 213.426,578.744 207.969,602.091C199.057,640.22 223.798,678.306 263.184,687.089C284.429,691.827 305.623,687.077 322.035,675.715C330.329,682.091 340.185,686.788 351.166,689.273C385.546,697.05 409.935,678.391 409.935,678.391C409.935,678.391 491.562,714.621 510.404,647.849C521.665,607.94 540.312,548.928 530.664,532.199C513.179,501.881 454.174,534.653 454.174,534.653Z" style="fill:rgb(158,189,206);"/><clipPath id="_clip1"><path d="M454.174,534.653C454.174,534.653 432.155,509.323 403.301,510.198C381.526,510.859 361.455,516.895 347.178,530.699C337.93,525.711 327.425,522.59 316.178,521.902C289.641,520.277 265.55,532.593 251.5,552.343C230.242,560.76 213.426,578.744 207.969,602.091C199.057,640.22 223.798,678.306 263.184,687.089C284.429,691.827 305.623,687.077 322.035,675.715C330.329,682.091 340.185,686.788 351.166,689.273C385.546,697.05 409.935,678.391 409.935,678.391C409.935,678.391 491.562,714.621 510.404,647.849C521.665,607.94 540.312,548.928 530.664,532.199C513.179,501.881 454.174,534.653 454.174,534.653Z"/></clipPath><g clip-path="url(#_clip1)"><path d="M530.664,532.199C513.179,501.881 454.174,534.653 454.174,534.653C454.174,534.653 432.155,509.323 403.301,510.198C381.526,510.859 361.455,516.895 347.178,530.699C337.93,525.711 327.425,522.59 316.178,521.902C289.641,520.277 265.55,532.593 251.5,552.343C243.653,555.45 215.984,560.804 209.437,569.554C198.249,584.508 206.593,608.55 203.151,623.278C203.089,623.543 211.291,587.78 225.458,576.074C249.096,556.543 257.873,563.325 257.873,563.325C257.873,563.325 258.561,543.155 285.076,535.834C324.963,524.821 349.967,550.231 349.967,550.231C349.967,550.231 369.846,535.534 380.003,533.235C434.114,520.988 454.322,547.732 454.322,547.732C454.322,547.732 471.638,531.734 490.039,529.278C509.857,526.632 530.706,531.619 530.664,532.199Z" style="fill:rgb(183,209,224);"/><path d="M425.645,615.846C423.614,627.829 416.082,637.877 404.922,641.553C387.941,647.146 368.949,635.883 362.537,616.417C361.484,613.22 360.835,610 360.561,606.825C360.511,606.244 367.585,629.909 393.783,633.366C417.902,636.549 425.647,616.395 425.645,615.846Z" style="fill:rgb(112,154,177);"/><path d="M500.166,606.5C503.325,623.85 497.764,641.928 483.89,653.632C462.781,671.439 430.367,667.789 411.553,645.486C408.463,641.823 405.931,637.884 403.951,633.779C403.588,633.028 425.445,660.579 464.086,649.364C499.661,639.039 500.444,607.238 500.166,606.5Z" style="fill:rgb(112,154,177);"/><path d="M361.102,635.862C363.069,644.405 360.671,653.689 353.956,660.144C343.738,669.966 327.37,669.542 317.427,659.199C315.795,657.5 314.436,655.639 313.351,653.671C313.152,653.311 324.739,666.148 343.911,658.866C361.561,652.162 361.258,636.219 361.102,635.862Z" style="fill:rgb(112,154,177);"/><path d="M324.455,640.858C322.939,649.493 317.113,657.109 308.413,660.438C295.176,665.502 280.267,658.735 275.139,645.334C274.297,643.134 273.771,640.89 273.539,638.655C273.496,638.246 279.165,654.583 299.66,655.347C318.527,656.049 324.459,641.247 324.455,640.858Z" style="fill:rgb(112,154,177);"/><path d="M246.929,578.491C247.857,570.669 252.937,563.174 260.997,559.08C273.262,552.852 287.814,556.843 293.474,567.987C294.403,569.818 295.035,571.727 295.388,573.669C295.453,574.024 289.105,560.36 269.607,562.41C251.657,564.297 246.902,578.148 246.929,578.491Z" style="fill:rgb(183,209,224);"/><path d="M333.402,582.975C331.064,572.748 333.998,561.458 342.132,553.412C354.508,541.171 374.264,541.047 386.222,553.136C388.185,555.121 389.817,557.313 391.119,559.644C391.357,560.071 377.426,545.038 354.252,554.564C332.918,563.334 333.215,582.55 333.402,582.975Z" style="fill:rgb(183,209,224);"/><path d="M377.741,569.465C382.569,558.311 392.278,550.346 403.993,549.435C421.817,548.048 437.579,563.512 439.169,583.945C439.43,587.301 439.293,590.583 438.802,593.732C438.713,594.308 437.48,569.638 412.86,560.039C390.194,551.202 377.871,568.931 377.741,569.465Z" style="fill:rgb(183,209,224);"/><path d="M483.46,680.906C467.378,711.315 411.31,678.89 411.31,678.89C411.31,678.89 402.922,690.259 382.546,693.803C362.01,697.376 329.458,693.098 322.609,686.212C313.956,691.252 291.967,691.676 281.372,692.429C256.374,694.205 220.541,701.993 207.032,682.329C186.878,674.036 211.129,647.129 211.129,647.129C211.129,647.129 229.31,671.797 254.406,678.964C292.159,689.745 312.853,663.914 312.853,663.914C312.853,663.914 331.791,678.493 341.398,680.733C392.578,692.667 411.276,665.815 411.276,665.815C411.276,665.815 427.815,681.708 445.196,684.058C463.916,686.59 483.507,681.485 483.46,680.906Z" style="fill:rgb(112,154,177);"/></g><path d="M311.627,482.814C314.082,475.968 313.521,463.658 311.304,456.678C303.323,431.554 275.576,417.913 249.38,426.235C223.184,434.556 208.396,461.709 216.376,486.833C218.979,495.027 223.575,501.587 229.753,507.387C241.188,518.122 292.231,536.904 311.627,482.814Z" style="fill:rgb(158,189,206);"/><clipPath id="_clip2"><path d="M311.627,482.814C314.082,475.968 313.521,463.658 311.304,456.678C303.323,431.554 275.576,417.913 249.38,426.235C223.184,434.556 208.396,461.709 216.376,486.833C218.979,495.027 223.575,501.587 229.753,507.387C241.188,518.122 292.231,536.904 311.627,482.814Z"/></clipPath><g clip-path="url(#_clip2)"><path d="M312.461,459.88C316.293,476.784 311.454,495.25 298.072,508.193C277.71,527.887 245.23,527.387 225.586,507.076C222.36,503.741 219.679,500.077 217.542,496.196C217.152,495.486 240.036,520.709 278.147,505.867C313.233,492.202 312.767,460.585 312.461,459.88Z" style="fill:rgb(112,154,177);"/><path d="M217.453,495.345C216.133,477.733 194.79,469.297 233.956,431.803C254.612,412.03 287.309,417.763 303.319,440.49C305.948,444.222 308.009,448.232 309.517,452.406C309.793,453.17 289.134,423.962 251.437,437.911C204.232,455.379 217.258,494.595 217.453,495.345Z" style="fill:rgb(183,209,224);"/></g><ellipse cx="388.588" cy="383.118" rx="64.389" ry="67.216" style="fill:rgb(158,189,206);"/><clipPath id="_clip3"><ellipse cx="388.588" cy="383.118" rx="64.389" ry="67.216"/></clipPath><g clip-path="url(#_clip3)"><path d="M443.819,346.822C432.529,328.477 412.057,316.206 388.697,316.206C353.154,316.206 324.297,344.614 324.297,379.604C324.297,385.35 325.075,390.919 326.533,396.213C326.8,397.181 325.438,355.029 372.757,335.431C416.321,317.388 443.48,345.931 443.819,346.822Z" style="fill:rgb(183,209,224);"/><path d="M453.667,379.399C455.931,400.82 447.214,423.039 428.717,437.306C400.571,459.012 360.372,454.141 339.003,426.434C335.494,421.884 332.71,417 330.631,411.917C330.251,410.987 354.915,445.197 404.354,431.818C449.869,419.5 453.943,380.311 453.667,379.399Z" style="fill:rgb(112,154,177);"/></g></g><g id="Broom"><path d="M549.56,442.285C549.56,434.882 555.571,428.871 562.975,428.871L707.85,428.871C715.253,428.871 721.264,434.882 721.264,442.285L721.264,482.528L549.56,482.528L549.56,442.285Z" style="fill:rgb(177,53,0);"/><path d="M495.903,503.991C495.903,492.146 516.251,482.528 528.097,482.528L742.727,482.528C754.573,482.528 774.922,492.146 774.922,503.991C774.922,503.991 780.376,547.271 785.653,568.38C792.807,596.998 817.848,675.695 817.848,675.695C817.848,687.541 808.23,697.158 796.385,697.158L474.44,697.158C462.594,697.158 452.977,687.541 452.977,675.695C452.977,675.695 478.017,596.998 485.171,568.38C490.449,547.271 495.903,503.991 495.903,503.991Z" style="fill:rgb(255,224,0);"/><path d="M618.303,568.38C618.303,558.937 625.969,551.271 635.412,551.271C644.855,551.271 652.521,558.937 652.521,568.38L652.521,675.695C652.521,685.138 644.855,692.804 635.412,692.804C625.969,692.804 618.303,685.138 618.303,675.695L618.303,568.38Z" style="fill:rgb(235,185,0);"/><path d="M554.246,565.025C556.098,555.765 565.119,549.751 574.379,551.603C583.638,553.455 589.652,562.476 587.8,571.736L566.337,679.051C564.485,688.31 555.464,694.324 546.205,692.472C536.945,690.62 530.931,681.599 532.783,672.34L554.246,565.025Z" style="fill:rgb(235,185,0);"/><path d="M683.024,571.736C681.172,562.476 687.186,553.455 696.446,551.603C705.705,549.751 714.726,555.765 716.578,565.025L738.041,672.34C739.893,681.599 733.879,690.62 724.62,692.472C715.36,694.324 706.339,688.31 704.487,679.051L683.024,571.736Z" style="fill:rgb(235,185,0);"/><path d="M678.338,106.926C678.338,83.234 659.104,64 635.412,64C611.721,64 592.486,83.234 592.486,106.926L592.486,428.871L678.338,428.871L678.338,106.926Z" style="fill:rgb(226,93,36);"/><path d="M678.338,106.926L678.338,428.871L592.486,428.871L592.486,106.926C592.486,83.234 611.721,64 635.412,64C659.104,64 678.338,83.234 678.338,106.926ZM626.705,106.926L626.705,394.652L644.12,394.652L644.12,106.926C644.12,102.12 640.218,98.218 635.412,98.218C630.606,98.218 626.705,102.12 626.705,106.926Z" style="fill:none;"/><path d="M452.977,675.695C452.977,675.695 456.94,687.883 471.179,689.904C531.508,698.468 693.148,694.317 781.161,687.993C827.004,684.699 792.601,625.988 781.861,586.267C771.349,547.39 774.922,501.092 774.922,503.991C774.922,503.991 780.376,547.271 785.653,568.38C792.807,596.998 817.848,675.695 817.848,675.695C817.848,687.541 808.23,697.158 796.385,697.158L474.44,697.158C462.594,697.158 452.977,687.541 452.977,675.695Z" style="fill:rgb(42,21,13);fill-opacity:0.5;"/><path d="M452.977,675.695C452.977,675.695 456.94,687.883 471.179,689.904C531.508,698.468 693.148,694.317 781.161,687.993C827.004,684.699 792.601,625.988 781.861,586.267C771.349,547.39 774.922,501.092 774.922,503.991C774.922,503.991 780.376,547.271 785.653,568.38C792.807,596.998 817.848,675.695 817.848,675.695C817.848,687.541 808.23,697.158 796.385,697.158L474.44,697.158C462.594,697.158 452.977,687.541 452.977,675.695Z" style="fill:none;"/><path d="M549.56,482.528C549.56,482.528 677.366,478.974 703.981,470.966C724.414,464.818 709.252,434.479 709.252,434.479C715.882,434.479 721.264,439.861 721.264,446.491L721.264,482.528L549.56,482.528Z" style="fill:rgb(42,21,13);fill-opacity:0.5;"/><path d="M635.412,64C635.808,64 667.776,73.828 667.957,96.372C668.535,168.199 672.607,343.083 666.214,411.217C664.379,430.774 637.64,428.77 638.002,428.771C650.335,428.779 665.798,428.818 678.338,428.871L678.338,106.926C678.338,83.234 659.104,64 635.412,64Z" style="fill:rgb(42,21,13);fill-opacity:0.5;"/><path d="M635.412,64C659.104,64 678.338,83.234 678.338,106.926L678.338,428.871C667.138,428.824 653.606,428.788 642.055,428.775C649.529,428.412 664.842,425.848 666.214,411.217C672.607,343.083 668.535,168.199 667.957,96.372C667.776,73.828 635.808,64 635.412,64ZM638.002,428.771C639.32,428.772 640.673,428.773 642.055,428.775C639.672,428.891 638.086,428.783 638.002,428.771Z" style="fill:none;"/></g></g></g></svg>